<?xml version="1.0" ?><svg id="Layer_3" style="enable-background:new 0 0 64 64;" version="1.1" viewBox="0 0 64 64" xml:space="preserve" xmlns="http://www.w3.org/2000/svg" xmlns:xlink="http://www.w3.org/1999/xlink"><g><rect height="40" style="fill:#CCCCCC;" width="40" x="12" y="22"/><path d="M12,22v31h28c1.105,0,2-0.895,2-2V22H12z" style="fill:#F2F2F2;"/><polygon points="32,46 16,46 16,26 26,26 26,32 32,32  " style="fill:#C8CDED;"/><polygon points="32,32 26,26 26,32  " style="fill:#9DA1BF;"/><path d="M26,32v-6H16v14h10c1.105,0,2-0.895,2-2v-6H26z" style="fill:#E2E7F6;"/><path d="M43,43v-8c0-2.209,1.791-4,4-4l10,0c2.209,0,4,1.791,4,4v8" style="fill:#686868;"/><path d="M47,41h-3c-1.105,0-2,0.895-2,2v0c0,1.105,0.895,2,2,2h3" style="fill:#F2B9A1;"/><path d="M57,41h3c1.105,0,2,0.895,2,2v0c0,1.105-0.895,2-2,2h-3" style="fill:#F2B9A1;"/><path d="M42,62v-5.531c0-1.991,1.464-3.678,3.434-3.96L49,52v-3h6v3l3.566,0.509   C60.536,52.791,62,54.479,62,56.469V62" style="fill:#F6B940;"/><path d="M54,59c1.105,0,2-0.895,2-2v-4.857L55,52v-3h-6v3l-3.566,0.509C43.464,52.791,42,54.479,42,56.469   V59H54z" style="fill:#FAD85D;"/><path d="M49,48v4v0c0,1.657,1.343,3,3,3h0c1.657,0,3-1.343,3-3v0v-4" style="fill:#F2B9A1;"/><polygon points="2,22 32,2 62,22  " style="fill:#FAD85D;"/><path d="M50,36L50,36c0,1.657-1.343,3-3,3h-1v5c0,3.314,2.686,6,6,6h0c3.314,0,6-2.686,6-6v-5h-5   C51.343,39,50,37.657,50,36L50,36" style="fill:#FBE1CA;"/><polyline points="53,59 44,59 39,50 25,50 32,62 55,62  " style="fill:#4C506E;"/><g><rect height="2" style="fill:#858BB5;" width="2" x="27" y="37"/></g><g><rect height="2" style="fill:#858BB5;" width="2" x="27" y="41"/></g><g><rect height="2" style="fill:#858BB5;" width="6" x="19" y="37"/></g><g><rect height="2" style="fill:#858BB5;" width="2" x="27" y="33"/></g><g><rect height="2" style="fill:#858BB5;" width="6" x="19" y="33"/></g><g><rect height="2" style="fill:#858BB5;" width="6" x="19" y="41"/></g><path d="M40.769,57.072L37.065,50H25l5.833,10h8.164C40.501,60,41.466,58.404,40.769,57.072z" style="fill:#787FAA;"/><circle cx="35.5" cy="55.5" r="1.5" style="fill:#E2E7F6;"/></g></svg>